PathFileType	3	(X/Y/Z)	F:\ViconData\AntennenMessung\Messung1\Session1\ID22.trc
DataRate	CameraRate	NumFrames	NumMarkers	Units	OrigDataRate	OrigDataStartFrame	OrigNumFrames
120.0	120.0	4	70	mm	120.0	796	1060	
Frame#	Time	Ashort			Along			Atop			A4			Bshort			Blong			Btop			B4			Cshort			Clong			Ctop			C4			Dshort			Dlong			Dtop			D4			Eshort			Elong			Etop			E4			Fshort			Flong			Ftop			F4			Gshort			Glong			Gtop			G4			Hshort			Hlong			Htop			H4			I1			I2			I3			I4			I5			WandAshort			WandAlong			WandAtop			WandA4			WandA15			WandBshort			WandB4			WandB5			WandBtop			WandBlong			WandCshort			WandClong			WandCtop			WandC4			WandC5			Acenter			Aantenna			Bcenter			Bantenna			Ccenter			Cantenna			Dcenter			Dantenna			Ecenter			Eantenna			Fcenter			Fantenna			Gcenter			Gantenna			Hcenter			Hantenna			Icenter			Iantenna			
		X1	Y1	Z1	X2	Y2	Z2	X3	Y3	Z3	X4	Y4	Z4	X5	Y5	Z5	X6	Y6	Z6	X7	Y7	Z7	X8	Y8	Z8	X9	Y9	Z9	X10	Y10	Z10	X11	Y11	Z11	X12	Y12	Z12	X13	Y13	Z13	X14	Y14	Z14	X15	Y15	Z15	X16	Y16	Z16	X17	Y17	Z17	X18	Y18	Z18	X19	Y19	Z19	X20	Y20	Z20	X21	Y21	Z21	X22	Y22	Z22	X23	Y23	Z23	X24	Y24	Z24	X25	Y25	Z25	X26	Y26	Z26	X27	Y27	Z27	X28	Y28	Z28	X29	Y29	Z29	X30	Y30	Z30	X31	Y31	Z31	X32	Y32	Z32	X33	Y33	Z33	X34	Y34	Z34	X35	Y35	Z35	X36	Y36	Z36	X37	Y37	Z37	X38	Y38	Z38	X39	Y39	Z39	X40	Y40	Z40	X41	Y41	Z41	X42	Y42	Z42	X43	Y43	Z43	X44	Y44	Z44	X45	Y45	Z45	X46	Y46	Z46	X47	Y47	Z47	X48	Y48	Z48	X49	Y49	Z49	X50	Y50	Z50	X51	Y51	Z51	X52	Y52	Z52	X53	Y53	Z53	X54	Y54	Z54	X55	Y55	Z55	X56	Y56	Z56	X57	Y57	Z57	X58	Y58	Z58	X59	Y59	Z59	X60	Y60	Z60	X61	Y61	Z61	X62	Y62	Z62	X63	Y63	Z63	X64	Y64	Z64	X65	Y65	Z65	X66	Y66	Z66	X67	Y67	Z67	X68	Y68	Z68	X69	Y69	Z69	X70	Y70	Z70	
796	6.625	-1038.218	214.61812	-1644.069	-1109.4332	204.25313	-1599.3521	-1063.6025	172.99826	-1625.8438	-1054.1615	262.36221	-1634.8618	-1352.4788	235.18301	1003.4661	-1281.359	227.39375	1052.1394	-1322.5997	194.08385	1020.7542	-1284.4727	288.00781	1052.5848	813.96106	187.66376	1209.3082	892.37939	178.62607	1178.9176	844.57404	145.41867	1198.3003	861.13013	292.43961	1168.3049	1115.8396	210.02847	-1401.847	1056.2871	194.06154	-1460.1958	1094.9081	162.07516	-1423.837	1069.6664	239.43333	-1426.3015	-1204.5647	1686.0172	-1563.1896	-1129.1316	1688.3899	-1606.0144	-1173.203	1724.4188	-1581.8798	-1133.986	1581.0959	-1603.9301	-1239.5957	1699.0663	1119.4944	-1309.2662	1698.576	1071.8679	-1270.4753	1736.3048	1096.9227	-1245.6332	1592.8042	1110.7021	988.88501	1664.2217	1162.1178	957.28021	1700.579	1183.7946	921.92175	1662.3314	1214.8818	939.83258	1659.4719	1159.6742	999.0448	1668.4583	-1579.437	1058.9325	1670.1868	-1518.7351	1024.9926	1708.0927	-1551.1754	1059.2899	1672.1813	-1585.4503	-272.34738	1636.7255	-231.56432	-187.75679	1640.1195	-237.82892	-235.57149	1675.2947	-233.7238	-233.39096	1637.8241	-202.43422	-239.29138	1639.2534	-281.16638																																														-1068.5162	210.20834	-1625.0441	-1073.621	248.86392	-1624.2136	-1321.2623	231.7641	1024.8301	-1319.8871	270.51379	1029.0216	848.12408	183.72647	1196.0685	851.71686	222.4949	1193.8099	1088.6064	202.72684	-1428.5297	1082.6707	241.01822	-1432.9497	-1171.9336	1687.0435	-1581.7147	-1170.6101	1648.0663	-1581.5427	-1270.9771	1698.8453	1098.0421	-1271.4991	1659.8663	1099.207	952.74097	1705.8007	1186.9076	972.71271	1733.9698	1168.7798	1026.526	1669.2513	-1551.5822	1028.0643	1630.2838	-1551.9901	-234.13507	1638.2585	-234.39424	-232.62387	1599.2943	-235.09956
797	6.6333333	-1038.2061	214.6514	-1644.092	-1109.4541	204.17021	-1599.3519	-1063.585	172.9552	-1625.8605	-1054.142	262.35068	-1634.8734	-1352.5537	235.1218	1003.5565	-1281.3468	227.39038	1052.0925	-1322.5769	194.05733	1020.7783	-1284.386	287.99579	1052.65	813.97656	187.77994	1209.4493	892.48889	178.68744	1178.9427	844.5769	145.34251	1198.3268	861.17621	292.29855	1168.1918	1115.8483	210.04854	-1401.8521	1056.2821	194.04588	-1460.199	1094.897	162.09685	-1423.8286	1069.6733	239.50056	-1426.2921	-1204.5913	1686.0254	-1563.1903	-1129.1506	1688.3671	-1606.0317	-1173.2388	1724.4883	-1581.8809	-1133.9994	1581.1019	-1603.9471	-1239.5801	1699.0409	1119.5	-1309.3129	1698.6769	1071.8993	-1270.4329	1736.2694	1096.9117	-1245.6105	1592.8131	1110.6982	988.8551	1664.1946	1162.087	957.24524	1700.5265	1183.8254	921.87085	1662.323	1214.8263	939.8576	1659.4491	1159.7462	999.05902	1668.4313	-1579.4033	1058.9371	1670.1874	-1518.7433	1024.991	1708.0801	-1551.1782	1059.2775	1672.2242	-1585.5548	-272.34796	1636.7396	-231.56862	-187.76416	1640.1219	-237.82539	-235.61722	1675.2571	-233.72021	-233.38347	1637.8239	-202.44221	-239.31721	1639.2581	-281.16071																																														-1068.5468	210.18802	-1625.0396	-1073.6974	248.83702	-1624.1877	-1321.2787	231.72604	1024.8741	-1319.9434	270.47479	1029.0874	848.18903	183.81778	1196.1556	851.8288	222.58589	1193.9681	1088.5994	202.72801	-1428.5432	1082.6648	241.01695	-1432.986	-1171.9792	1687.0376	-1581.7101	-1170.6685	1648.0599	-1581.5325	-1271.0109	1698.8767	1098.0448	-1271.6136	1659.8993	1099.2257	952.66986	1705.7852	1186.9719	972.6521	1733.983	1168.9003	1026.5303	1669.2368	-1551.5731	1028.0746	1630.2694	-1551.9695	-234.18764	1638.2655	-234.39137	-232.68182	1599.301	-235.09834
798	6.6416667	-1038.1964	214.63397	-1644.0566	-1109.5323	203.96974	-1599.457	-1063.6024	172.98653	-1625.8727	-1054.1155	262.40781	-1634.8719	-1352.5663	235.11758	1003.5668	-1281.2655	227.52763	1052.1266	-1322.5627	194.08998	1020.7729	-1284.5352	287.9935	1052.5968	813.96716	187.67451	1209.3416	892.52277	178.70468	1178.8822	844.50049	145.47807	1198.3057	861.17004	292.23935	1168.3265	1115.8528	210.04742	-1401.8442	1056.3071	194.07396	-1460.1833	1094.9197	162.11041	-1423.8451	1069.6707	239.4727	-1426.2797	-1204.6041	1686.0238	-1563.1898	-1129.1731	1688.3798	-1605.9974	-1173.2329	1724.5073	-1581.8888	-1134.0287	1581.0973	-1603.9468	-1239.5863	1699.0605	1119.5037	-1309.2847	1698.6321	1071.8962	-1270.4799	1736.3342	1096.9297	-1245.6932	1592.9371	1110.7394	988.86945	1664.2101	1162.0651	957.31787	1700.5981	1183.821	921.92725	1662.3232	1214.8137	939.84302	1659.4417	1159.6647	999.05078	1668.4386	-1579.4194	1058.9307	1670.1835	-1518.7466	1024.9856	1708.0815	-1551.1831	1059.2959	1672.1913	-1585.4586	-272.48477	1636.8711	-231.59581	-187.76608	1640.1189	-237.82547	-235.56059	1675.2985	-233.71452	-233.37144	1637.8054	-202.42102	-239.30251	1639.2517	-281.14923																																														-1068.6237	210.0853	-1625.0332	-1073.8531	248.72321	-1624.1591	-1321.3228	231.79172	1024.8452	-1320.0483	270.54547	1029.0311	848.0321	183.78481	1196.1331	851.60681	222.55832	1193.9341	1088.6128	202.74014	-1428.5322	1082.6691	241.03059	-1432.9496	-1171.9635	1687.0432	-1581.7135	-1170.6427	1648.066	-1581.5312	-1271.0085	1698.8673	1098.0405	-1271.5585	1659.8883	1099.1965	952.81995	1705.7855	1186.9226	972.84119	1733.953	1168.8466	1026.5229	1669.239	-1551.5833	1028.0654	1630.2716	-1551.985	-234.19487	1638.3389	-234.41139	-232.75502	1599.3724	-235.14612
799	6.65	-1038.2147	214.63051	-1644.0625	-1109.5836	203.97775	-1599.4884	-1063.5735	172.9586	-1625.8729	-1054.1311	262.39722	-1634.8472	-1352.6338	234.95016	1003.4255	-1281.3451	227.38771	1052.083	-1322.5956	193.99492	1020.7782	-1284.7794	287.77356	1052.7894	814.01227	187.67188	1209.3324	892.508	178.62599	1178.9198	844.52673	145.44218	1198.2537	861.11517	292.21375	1168.0927	1115.8444	210.04926	-1401.8447	1056.3051	194.11496	-1460.1757	1094.9437	162.11163	-1423.8455	1069.6968	239.49875	-1426.2903	-1204.583	1686.0244	-1563.1913	-1129.1349	1688.3683	-1606.0118	-1173.2361	1724.5048	-1581.8837	-1134.0259	1581.098	-1603.9341	-1239.5865	1699.0458	1119.4993	-1309.3531	1698.7679	1071.9395	-1270.4529	1736.2781	1096.9092	-1245.6121	1592.7745	1110.6797	988.86652	1664.2205	1162.0969	957.21021	1700.594	1183.7864	921.83862	1662.3098	1214.7769	939.85803	1659.4923	1159.6923	999.03088	1668.4536	-1579.4496	1058.9194	1670.1875	-1518.7379	1024.9846	1708.0767	-1551.1864	1059.2976	1672.1919	-1585.4619	-272.49875	1636.8862	-231.59091	-187.78365	1640.1123	-237.82341	-235.62651	1675.2498	-233.70906	-233.37598	1637.8157	-202.4547	-239.30609	1639.2543	-281.15335																																														-1068.6173	210.0925	-1625.0741	-1073.8652	248.72885	-1624.2432	-1321.3385	231.63029	1024.7858	-1320.0439	270.38968	1028.9131	848.11371	183.74199	1196.1199	851.74481	222.51247	1193.9601	1088.6302	202.76601	-1428.5066	1082.6833	241.05905	-1432.8971	-1171.9688	1687.0376	-1581.7014	-1170.6503	1648.0603	-1581.512	-1271.0719	1698.9203	1098.0355	-1271.718	1659.9434	1099.2109	952.68787	1705.79	1186.8849	972.68384	1733.9734	1168.8055	1026.5151	1669.2491	-1551.5874	1028.0514	1630.2816	-1551.9899	-234.27206	1638.3418	-234.40324	-232.84207	1599.375	-235.13614
